<mxfile host="app.diagrams.net" modified="2020-08-06T08:41:16.303Z" agent="5.0 (Windows NT 10.0; Win64; x64) AppleWebKit/537.36 (KHTML, like Gecko) Chrome/84.0.4147.105 Safari/537.36" etag="2NXWlcfNDuafQOEqxLRZ" version="13.6.0" type="github">
  <diagram id="C5RBs43oDa-KdzZeNtuy" name="Page-1">
    <mxGraphModel dx="1447" dy="722" grid="1" gridSize="10" guides="1" tooltips="1" connect="1" arrows="1" fold="1" page="1" pageScale="1" pageWidth="827" pageHeight="1169" math="0" shadow="0">
      <root>
        <mxCell id="WIyWlLk6GJQsqaUBKTNV-0" />
        <mxCell id="WIyWlLk6GJQsqaUBKTNV-1" parent="WIyWlLk6GJQsqaUBKTNV-0" />
        <mxCell id="N1QTLzZFye_Z8eLdZ8pb-5" value="CategoryBO" style="swimlane;fontStyle=0;childLayout=stackLayout;horizontal=1;startSize=26;fillColor=#e6d0de;horizontalStack=0;resizeParent=1;resizeParentMax=0;resizeLast=0;collapsible=1;marginBottom=0;gradientColor=#d5739d;strokeColor=#996185;" vertex="1" parent="WIyWlLk6GJQsqaUBKTNV-1">
          <mxGeometry x="231" y="270" width="170" height="78" as="geometry" />
        </mxCell>
        <mxCell id="N1QTLzZFye_Z8eLdZ8pb-6" value="+ Name: string" style="text;strokeColor=#d6b656;fillColor=#fff2cc;align=left;verticalAlign=top;spacingLeft=4;spacingRight=4;overflow=hidden;rotatable=0;points=[[0,0.5],[1,0.5]];portConstraint=eastwest;gradientColor=#ffd966;" vertex="1" parent="N1QTLzZFye_Z8eLdZ8pb-5">
          <mxGeometry y="26" width="170" height="26" as="geometry" />
        </mxCell>
        <mxCell id="N1QTLzZFye_Z8eLdZ8pb-7" value="+ ID: string" style="text;strokeColor=#d6b656;fillColor=#fff2cc;align=left;verticalAlign=top;spacingLeft=4;spacingRight=4;overflow=hidden;rotatable=0;points=[[0,0.5],[1,0.5]];portConstraint=eastwest;gradientColor=#ffd966;" vertex="1" parent="N1QTLzZFye_Z8eLdZ8pb-5">
          <mxGeometry y="52" width="170" height="26" as="geometry" />
        </mxCell>
        <mxCell id="N1QTLzZFye_Z8eLdZ8pb-16" value="EarningDeductionBO" style="swimlane;fontStyle=0;childLayout=stackLayout;horizontal=1;startSize=26;fillColor=#e6d0de;horizontalStack=0;resizeParent=1;resizeParentMax=0;resizeLast=0;collapsible=1;marginBottom=0;gradientColor=#d5739d;strokeColor=#996185;" vertex="1" parent="WIyWlLk6GJQsqaUBKTNV-1">
          <mxGeometry x="420" y="270" width="190" height="390" as="geometry" />
        </mxCell>
        <mxCell id="N1QTLzZFye_Z8eLdZ8pb-17" value="+ ID: string" style="text;strokeColor=#d6b656;fillColor=#fff2cc;align=left;verticalAlign=top;spacingLeft=4;spacingRight=4;overflow=hidden;rotatable=0;points=[[0,0.5],[1,0.5]];portConstraint=eastwest;gradientColor=#ffd966;" vertex="1" parent="N1QTLzZFye_Z8eLdZ8pb-16">
          <mxGeometry y="26" width="190" height="26" as="geometry" />
        </mxCell>
        <mxCell id="N1QTLzZFye_Z8eLdZ8pb-25" value="+ Type: boolean" style="text;strokeColor=#d6b656;fillColor=#fff2cc;align=left;verticalAlign=top;spacingLeft=4;spacingRight=4;overflow=hidden;rotatable=0;points=[[0,0.5],[1,0.5]];portConstraint=eastwest;gradientColor=#ffd966;" vertex="1" parent="N1QTLzZFye_Z8eLdZ8pb-16">
          <mxGeometry y="52" width="190" height="26" as="geometry" />
        </mxCell>
        <mxCell id="N1QTLzZFye_Z8eLdZ8pb-24" value="+ Scale: string" style="text;strokeColor=#d6b656;fillColor=#fff2cc;align=left;verticalAlign=top;spacingLeft=4;spacingRight=4;overflow=hidden;rotatable=0;points=[[0,0.5],[1,0.5]];portConstraint=eastwest;gradientColor=#ffd966;" vertex="1" parent="N1QTLzZFye_Z8eLdZ8pb-16">
          <mxGeometry y="78" width="190" height="26" as="geometry" />
        </mxCell>
        <mxCell id="N1QTLzZFye_Z8eLdZ8pb-23" value="+ Name: string" style="text;strokeColor=#d6b656;fillColor=#fff2cc;align=left;verticalAlign=top;spacingLeft=4;spacingRight=4;overflow=hidden;rotatable=0;points=[[0,0.5],[1,0.5]];portConstraint=eastwest;gradientColor=#ffd966;" vertex="1" parent="N1QTLzZFye_Z8eLdZ8pb-16">
          <mxGeometry y="104" width="190" height="26" as="geometry" />
        </mxCell>
        <mxCell id="N1QTLzZFye_Z8eLdZ8pb-18" value="+ Description: string" style="text;strokeColor=#d6b656;fillColor=#fff2cc;align=left;verticalAlign=top;spacingLeft=4;spacingRight=4;overflow=hidden;rotatable=0;points=[[0,0.5],[1,0.5]];portConstraint=eastwest;gradientColor=#ffd966;" vertex="1" parent="N1QTLzZFye_Z8eLdZ8pb-16">
          <mxGeometry y="130" width="190" height="26" as="geometry" />
        </mxCell>
        <mxCell id="N1QTLzZFye_Z8eLdZ8pb-20" value="+ FixedOrVariable: boolean" style="text;strokeColor=#d6b656;fillColor=#fff2cc;align=left;verticalAlign=top;spacingLeft=4;spacingRight=4;overflow=hidden;rotatable=0;points=[[0,0.5],[1,0.5]];portConstraint=eastwest;gradientColor=#ffd966;" vertex="1" parent="N1QTLzZFye_Z8eLdZ8pb-16">
          <mxGeometry y="156" width="190" height="26" as="geometry" />
        </mxCell>
        <mxCell id="N1QTLzZFye_Z8eLdZ8pb-22" value="+ Value: int" style="text;strokeColor=#d6b656;fillColor=#fff2cc;align=left;verticalAlign=top;spacingLeft=4;spacingRight=4;overflow=hidden;rotatable=0;points=[[0,0.5],[1,0.5]];portConstraint=eastwest;gradientColor=#ffd966;" vertex="1" parent="N1QTLzZFye_Z8eLdZ8pb-16">
          <mxGeometry y="182" width="190" height="26" as="geometry" />
        </mxCell>
        <mxCell id="N1QTLzZFye_Z8eLdZ8pb-21" value="+ EligibilityConditionOp: string" style="text;strokeColor=#d6b656;fillColor=#fff2cc;align=left;verticalAlign=top;spacingLeft=4;spacingRight=4;overflow=hidden;rotatable=0;points=[[0,0.5],[1,0.5]];portConstraint=eastwest;gradientColor=#ffd966;" vertex="1" parent="N1QTLzZFye_Z8eLdZ8pb-16">
          <mxGeometry y="208" width="190" height="26" as="geometry" />
        </mxCell>
        <mxCell id="N1QTLzZFye_Z8eLdZ8pb-26" value="+ EligibilityConditionValue: int" style="text;strokeColor=#d6b656;fillColor=#fff2cc;align=left;verticalAlign=top;spacingLeft=4;spacingRight=4;overflow=hidden;rotatable=0;points=[[0,0.5],[1,0.5]];portConstraint=eastwest;gradientColor=#ffd966;" vertex="1" parent="N1QTLzZFye_Z8eLdZ8pb-16">
          <mxGeometry y="234" width="190" height="26" as="geometry" />
        </mxCell>
        <mxCell id="N1QTLzZFye_Z8eLdZ8pb-27" value="+ MaximumValue: int" style="text;strokeColor=#d6b656;fillColor=#fff2cc;align=left;verticalAlign=top;spacingLeft=4;spacingRight=4;overflow=hidden;rotatable=0;points=[[0,0.5],[1,0.5]];portConstraint=eastwest;gradientColor=#ffd966;" vertex="1" parent="N1QTLzZFye_Z8eLdZ8pb-16">
          <mxGeometry y="260" width="190" height="26" as="geometry" />
        </mxCell>
        <mxCell id="N1QTLzZFye_Z8eLdZ8pb-28" value="+ Category: string" style="text;strokeColor=#d6b656;fillColor=#fff2cc;align=left;verticalAlign=top;spacingLeft=4;spacingRight=4;overflow=hidden;rotatable=0;points=[[0,0.5],[1,0.5]];portConstraint=eastwest;gradientColor=#ffd966;" vertex="1" parent="N1QTLzZFye_Z8eLdZ8pb-16">
          <mxGeometry y="286" width="190" height="26" as="geometry" />
        </mxCell>
        <mxCell id="N1QTLzZFye_Z8eLdZ8pb-29" value="+ SubCategory: string" style="text;strokeColor=#d6b656;fillColor=#fff2cc;align=left;verticalAlign=top;spacingLeft=4;spacingRight=4;overflow=hidden;rotatable=0;points=[[0,0.5],[1,0.5]];portConstraint=eastwest;gradientColor=#ffd966;" vertex="1" parent="N1QTLzZFye_Z8eLdZ8pb-16">
          <mxGeometry y="312" width="190" height="26" as="geometry" />
        </mxCell>
        <mxCell id="N1QTLzZFye_Z8eLdZ8pb-19" value="+ MonthYear: date" style="text;strokeColor=#d6b656;fillColor=#fff2cc;align=left;verticalAlign=top;spacingLeft=4;spacingRight=4;overflow=hidden;rotatable=0;points=[[0,0.5],[1,0.5]];portConstraint=eastwest;gradientColor=#ffd966;" vertex="1" parent="N1QTLzZFye_Z8eLdZ8pb-16">
          <mxGeometry y="338" width="190" height="26" as="geometry" />
        </mxCell>
        <mxCell id="N1QTLzZFye_Z8eLdZ8pb-30" value="+ ForAll: boolean" style="text;strokeColor=#d6b656;fillColor=#fff2cc;align=left;verticalAlign=top;spacingLeft=4;spacingRight=4;overflow=hidden;rotatable=0;points=[[0,0.5],[1,0.5]];portConstraint=eastwest;gradientColor=#ffd966;" vertex="1" parent="N1QTLzZFye_Z8eLdZ8pb-16">
          <mxGeometry y="364" width="190" height="26" as="geometry" />
        </mxCell>
        <mxCell id="N1QTLzZFye_Z8eLdZ8pb-46" value="EmployeeBO" style="swimlane;fontStyle=0;childLayout=stackLayout;horizontal=1;startSize=26;fillColor=#e6d0de;horizontalStack=0;resizeParent=1;resizeParentMax=0;resizeLast=0;collapsible=1;marginBottom=0;gradientColor=#d5739d;strokeColor=#996185;" vertex="1" parent="WIyWlLk6GJQsqaUBKTNV-1">
          <mxGeometry x="630" y="270" width="190" height="676" as="geometry" />
        </mxCell>
        <mxCell id="N1QTLzZFye_Z8eLdZ8pb-47" value="+ ID: string" style="text;strokeColor=#d6b656;fillColor=#fff2cc;align=left;verticalAlign=top;spacingLeft=4;spacingRight=4;overflow=hidden;rotatable=0;points=[[0,0.5],[1,0.5]];portConstraint=eastwest;gradientColor=#ffd966;" vertex="1" parent="N1QTLzZFye_Z8eLdZ8pb-46">
          <mxGeometry y="26" width="190" height="26" as="geometry" />
        </mxCell>
        <mxCell id="N1QTLzZFye_Z8eLdZ8pb-48" value="+ Name: string" style="text;strokeColor=#d6b656;fillColor=#fff2cc;align=left;verticalAlign=top;spacingLeft=4;spacingRight=4;overflow=hidden;rotatable=0;points=[[0,0.5],[1,0.5]];portConstraint=eastwest;gradientColor=#ffd966;" vertex="1" parent="N1QTLzZFye_Z8eLdZ8pb-46">
          <mxGeometry y="52" width="190" height="26" as="geometry" />
        </mxCell>
        <mxCell id="N1QTLzZFye_Z8eLdZ8pb-49" value="+ Department: string" style="text;strokeColor=#d6b656;fillColor=#fff2cc;align=left;verticalAlign=top;spacingLeft=4;spacingRight=4;overflow=hidden;rotatable=0;points=[[0,0.5],[1,0.5]];portConstraint=eastwest;gradientColor=#ffd966;" vertex="1" parent="N1QTLzZFye_Z8eLdZ8pb-46">
          <mxGeometry y="78" width="190" height="26" as="geometry" />
        </mxCell>
        <mxCell id="N1QTLzZFye_Z8eLdZ8pb-50" value="+ Designation: string" style="text;strokeColor=#d6b656;fillColor=#fff2cc;align=left;verticalAlign=top;spacingLeft=4;spacingRight=4;overflow=hidden;rotatable=0;points=[[0,0.5],[1,0.5]];portConstraint=eastwest;gradientColor=#ffd966;" vertex="1" parent="N1QTLzZFye_Z8eLdZ8pb-46">
          <mxGeometry y="104" width="190" height="26" as="geometry" />
        </mxCell>
        <mxCell id="N1QTLzZFye_Z8eLdZ8pb-51" value="+ Category: string" style="text;strokeColor=#d6b656;fillColor=#fff2cc;align=left;verticalAlign=top;spacingLeft=4;spacingRight=4;overflow=hidden;rotatable=0;points=[[0,0.5],[1,0.5]];portConstraint=eastwest;gradientColor=#ffd966;" vertex="1" parent="N1QTLzZFye_Z8eLdZ8pb-46">
          <mxGeometry y="130" width="190" height="26" as="geometry" />
        </mxCell>
        <mxCell id="N1QTLzZFye_Z8eLdZ8pb-52" value="+ SubCategory: string" style="text;strokeColor=#d6b656;fillColor=#fff2cc;align=left;verticalAlign=top;spacingLeft=4;spacingRight=4;overflow=hidden;rotatable=0;points=[[0,0.5],[1,0.5]];portConstraint=eastwest;gradientColor=#ffd966;" vertex="1" parent="N1QTLzZFye_Z8eLdZ8pb-46">
          <mxGeometry y="156" width="190" height="26" as="geometry" />
        </mxCell>
        <mxCell id="N1QTLzZFye_Z8eLdZ8pb-53" value="+ PAN: string" style="text;strokeColor=#d6b656;fillColor=#fff2cc;align=left;verticalAlign=top;spacingLeft=4;spacingRight=4;overflow=hidden;rotatable=0;points=[[0,0.5],[1,0.5]];portConstraint=eastwest;gradientColor=#ffd966;" vertex="1" parent="N1QTLzZFye_Z8eLdZ8pb-46">
          <mxGeometry y="182" width="190" height="26" as="geometry" />
        </mxCell>
        <mxCell id="N1QTLzZFye_Z8eLdZ8pb-54" value="+ UID: string" style="text;strokeColor=#d6b656;fillColor=#fff2cc;align=left;verticalAlign=top;spacingLeft=4;spacingRight=4;overflow=hidden;rotatable=0;points=[[0,0.5],[1,0.5]];portConstraint=eastwest;gradientColor=#ffd966;" vertex="1" parent="N1QTLzZFye_Z8eLdZ8pb-46">
          <mxGeometry y="208" width="190" height="26" as="geometry" />
        </mxCell>
        <mxCell id="N1QTLzZFye_Z8eLdZ8pb-55" value="+ DateOfBirth: date" style="text;strokeColor=#d6b656;fillColor=#fff2cc;align=left;verticalAlign=top;spacingLeft=4;spacingRight=4;overflow=hidden;rotatable=0;points=[[0,0.5],[1,0.5]];portConstraint=eastwest;gradientColor=#ffd966;" vertex="1" parent="N1QTLzZFye_Z8eLdZ8pb-46">
          <mxGeometry y="234" width="190" height="26" as="geometry" />
        </mxCell>
        <mxCell id="N1QTLzZFye_Z8eLdZ8pb-56" value="+ DateOfJoining: date" style="text;strokeColor=#d6b656;fillColor=#fff2cc;align=left;verticalAlign=top;spacingLeft=4;spacingRight=4;overflow=hidden;rotatable=0;points=[[0,0.5],[1,0.5]];portConstraint=eastwest;gradientColor=#ffd966;" vertex="1" parent="N1QTLzZFye_Z8eLdZ8pb-46">
          <mxGeometry y="260" width="190" height="26" as="geometry" />
        </mxCell>
        <mxCell id="N1QTLzZFye_Z8eLdZ8pb-57" value="+ DateOfNextIncrement: date" style="text;strokeColor=#d6b656;fillColor=#fff2cc;align=left;verticalAlign=top;spacingLeft=4;spacingRight=4;overflow=hidden;rotatable=0;points=[[0,0.5],[1,0.5]];portConstraint=eastwest;gradientColor=#ffd966;" vertex="1" parent="N1QTLzZFye_Z8eLdZ8pb-46">
          <mxGeometry y="286" width="190" height="26" as="geometry" />
        </mxCell>
        <mxCell id="N1QTLzZFye_Z8eLdZ8pb-58" value="+ IsActive: boolean" style="text;strokeColor=#d6b656;fillColor=#fff2cc;align=left;verticalAlign=top;spacingLeft=4;spacingRight=4;overflow=hidden;rotatable=0;points=[[0,0.5],[1,0.5]];portConstraint=eastwest;gradientColor=#ffd966;" vertex="1" parent="N1QTLzZFye_Z8eLdZ8pb-46">
          <mxGeometry y="312" width="190" height="26" as="geometry" />
        </mxCell>
        <mxCell id="N1QTLzZFye_Z8eLdZ8pb-61" value="+ Sex: string" style="text;strokeColor=#d6b656;fillColor=#fff2cc;align=left;verticalAlign=top;spacingLeft=4;spacingRight=4;overflow=hidden;rotatable=0;points=[[0,0.5],[1,0.5]];portConstraint=eastwest;gradientColor=#ffd966;" vertex="1" parent="N1QTLzZFye_Z8eLdZ8pb-46">
          <mxGeometry y="338" width="190" height="26" as="geometry" />
        </mxCell>
        <mxCell id="N1QTLzZFye_Z8eLdZ8pb-64" value="+ BloodGroup: string" style="text;strokeColor=#d6b656;fillColor=#fff2cc;align=left;verticalAlign=top;spacingLeft=4;spacingRight=4;overflow=hidden;rotatable=0;points=[[0,0.5],[1,0.5]];portConstraint=eastwest;gradientColor=#ffd966;" vertex="1" parent="N1QTLzZFye_Z8eLdZ8pb-46">
          <mxGeometry y="364" width="190" height="26" as="geometry" />
        </mxCell>
        <mxCell id="N1QTLzZFye_Z8eLdZ8pb-66" value="+ MarritalStatus: string" style="text;strokeColor=#d6b656;fillColor=#fff2cc;align=left;verticalAlign=top;spacingLeft=4;spacingRight=4;overflow=hidden;rotatable=0;points=[[0,0.5],[1,0.5]];portConstraint=eastwest;gradientColor=#ffd966;" vertex="1" parent="N1QTLzZFye_Z8eLdZ8pb-46">
          <mxGeometry y="390" width="190" height="26" as="geometry" />
        </mxCell>
        <mxCell id="N1QTLzZFye_Z8eLdZ8pb-65" value="+ Religion: string" style="text;strokeColor=#d6b656;fillColor=#fff2cc;align=left;verticalAlign=top;spacingLeft=4;spacingRight=4;overflow=hidden;rotatable=0;points=[[0,0.5],[1,0.5]];portConstraint=eastwest;gradientColor=#ffd966;" vertex="1" parent="N1QTLzZFye_Z8eLdZ8pb-46">
          <mxGeometry y="416" width="190" height="26" as="geometry" />
        </mxCell>
        <mxCell id="N1QTLzZFye_Z8eLdZ8pb-63" value="+ Caste: string" style="text;strokeColor=#d6b656;fillColor=#fff2cc;align=left;verticalAlign=top;spacingLeft=4;spacingRight=4;overflow=hidden;rotatable=0;points=[[0,0.5],[1,0.5]];portConstraint=eastwest;gradientColor=#ffd966;" vertex="1" parent="N1QTLzZFye_Z8eLdZ8pb-46">
          <mxGeometry y="442" width="190" height="26" as="geometry" />
        </mxCell>
        <mxCell id="N1QTLzZFye_Z8eLdZ8pb-62" value="+ ResidentialAddress: string" style="text;strokeColor=#d6b656;fillColor=#fff2cc;align=left;verticalAlign=top;spacingLeft=4;spacingRight=4;overflow=hidden;rotatable=0;points=[[0,0.5],[1,0.5]];portConstraint=eastwest;gradientColor=#ffd966;" vertex="1" parent="N1QTLzZFye_Z8eLdZ8pb-46">
          <mxGeometry y="468" width="190" height="26" as="geometry" />
        </mxCell>
        <mxCell id="N1QTLzZFye_Z8eLdZ8pb-59" value="+ QuarterNumber: string" style="text;strokeColor=#d6b656;fillColor=#fff2cc;align=left;verticalAlign=top;spacingLeft=4;spacingRight=4;overflow=hidden;rotatable=0;points=[[0,0.5],[1,0.5]];portConstraint=eastwest;gradientColor=#ffd966;" vertex="1" parent="N1QTLzZFye_Z8eLdZ8pb-46">
          <mxGeometry y="494" width="190" height="26" as="geometry" />
        </mxCell>
        <mxCell id="N1QTLzZFye_Z8eLdZ8pb-60" value="+ PersonalContact: string" style="text;strokeColor=#d6b656;fillColor=#fff2cc;align=left;verticalAlign=top;spacingLeft=4;spacingRight=4;overflow=hidden;rotatable=0;points=[[0,0.5],[1,0.5]];portConstraint=eastwest;gradientColor=#ffd966;" vertex="1" parent="N1QTLzZFye_Z8eLdZ8pb-46">
          <mxGeometry y="520" width="190" height="26" as="geometry" />
        </mxCell>
        <mxCell id="N1QTLzZFye_Z8eLdZ8pb-69" value="+ EmergencyContact: string" style="text;strokeColor=#d6b656;fillColor=#fff2cc;align=left;verticalAlign=top;spacingLeft=4;spacingRight=4;overflow=hidden;rotatable=0;points=[[0,0.5],[1,0.5]];portConstraint=eastwest;gradientColor=#ffd966;" vertex="1" parent="N1QTLzZFye_Z8eLdZ8pb-46">
          <mxGeometry y="546" width="190" height="26" as="geometry" />
        </mxCell>
        <mxCell id="N1QTLzZFye_Z8eLdZ8pb-68" value="+ EmailID: string" style="text;strokeColor=#d6b656;fillColor=#fff2cc;align=left;verticalAlign=top;spacingLeft=4;spacingRight=4;overflow=hidden;rotatable=0;points=[[0,0.5],[1,0.5]];portConstraint=eastwest;gradientColor=#ffd966;" vertex="1" parent="N1QTLzZFye_Z8eLdZ8pb-46">
          <mxGeometry y="572" width="190" height="26" as="geometry" />
        </mxCell>
        <mxCell id="N1QTLzZFye_Z8eLdZ8pb-67" value="+ IdentificationMark: string" style="text;strokeColor=#d6b656;fillColor=#fff2cc;align=left;verticalAlign=top;spacingLeft=4;spacingRight=4;overflow=hidden;rotatable=0;points=[[0,0.5],[1,0.5]];portConstraint=eastwest;gradientColor=#ffd966;" vertex="1" parent="N1QTLzZFye_Z8eLdZ8pb-46">
          <mxGeometry y="598" width="190" height="26" as="geometry" />
        </mxCell>
        <mxCell id="N1QTLzZFye_Z8eLdZ8pb-72" value="+ Qualification: string" style="text;strokeColor=#d6b656;fillColor=#fff2cc;align=left;verticalAlign=top;spacingLeft=4;spacingRight=4;overflow=hidden;rotatable=0;points=[[0,0.5],[1,0.5]];portConstraint=eastwest;gradientColor=#ffd966;" vertex="1" parent="N1QTLzZFye_Z8eLdZ8pb-46">
          <mxGeometry y="624" width="190" height="26" as="geometry" />
        </mxCell>
        <mxCell id="N1QTLzZFye_Z8eLdZ8pb-71" value="+ Remarks: string" style="text;strokeColor=#d6b656;fillColor=#fff2cc;align=left;verticalAlign=top;spacingLeft=4;spacingRight=4;overflow=hidden;rotatable=0;points=[[0,0.5],[1,0.5]];portConstraint=eastwest;gradientColor=#ffd966;" vertex="1" parent="N1QTLzZFye_Z8eLdZ8pb-46">
          <mxGeometry y="650" width="190" height="26" as="geometry" />
        </mxCell>
        <mxCell id="N1QTLzZFye_Z8eLdZ8pb-13" value="DesignationBO" style="swimlane;fontStyle=0;childLayout=stackLayout;horizontal=1;startSize=26;fillColor=#e6d0de;horizontalStack=0;resizeParent=1;resizeParentMax=0;resizeLast=0;collapsible=1;marginBottom=0;gradientColor=#d5739d;strokeColor=#996185;" vertex="1" parent="WIyWlLk6GJQsqaUBKTNV-1">
          <mxGeometry x="230" y="380" width="170" height="78" as="geometry" />
        </mxCell>
        <mxCell id="N1QTLzZFye_Z8eLdZ8pb-14" value="+ Name: string" style="text;strokeColor=#d6b656;fillColor=#fff2cc;align=left;verticalAlign=top;spacingLeft=4;spacingRight=4;overflow=hidden;rotatable=0;points=[[0,0.5],[1,0.5]];portConstraint=eastwest;gradientColor=#ffd966;" vertex="1" parent="N1QTLzZFye_Z8eLdZ8pb-13">
          <mxGeometry y="26" width="170" height="26" as="geometry" />
        </mxCell>
        <mxCell id="N1QTLzZFye_Z8eLdZ8pb-15" value="+ ID: string" style="text;strokeColor=#d6b656;fillColor=#fff2cc;align=left;verticalAlign=top;spacingLeft=4;spacingRight=4;overflow=hidden;rotatable=0;points=[[0,0.5],[1,0.5]];portConstraint=eastwest;gradientColor=#ffd966;" vertex="1" parent="N1QTLzZFye_Z8eLdZ8pb-13">
          <mxGeometry y="52" width="170" height="26" as="geometry" />
        </mxCell>
        <mxCell id="N1QTLzZFye_Z8eLdZ8pb-9" value="DepartmentBO" style="swimlane;fontStyle=0;childLayout=stackLayout;horizontal=1;startSize=26;fillColor=#e6d0de;horizontalStack=0;resizeParent=1;resizeParentMax=0;resizeLast=0;collapsible=1;marginBottom=0;gradientColor=#d5739d;strokeColor=#996185;" vertex="1" parent="WIyWlLk6GJQsqaUBKTNV-1">
          <mxGeometry x="231" y="490" width="170" height="104" as="geometry" />
        </mxCell>
        <mxCell id="N1QTLzZFye_Z8eLdZ8pb-10" value="+ Name: string" style="text;strokeColor=#d6b656;fillColor=#fff2cc;align=left;verticalAlign=top;spacingLeft=4;spacingRight=4;overflow=hidden;rotatable=0;points=[[0,0.5],[1,0.5]];portConstraint=eastwest;gradientColor=#ffd966;" vertex="1" parent="N1QTLzZFye_Z8eLdZ8pb-9">
          <mxGeometry y="26" width="170" height="26" as="geometry" />
        </mxCell>
        <mxCell id="N1QTLzZFye_Z8eLdZ8pb-11" value="+ ID: string" style="text;strokeColor=#d6b656;fillColor=#fff2cc;align=left;verticalAlign=top;spacingLeft=4;spacingRight=4;overflow=hidden;rotatable=0;points=[[0,0.5],[1,0.5]];portConstraint=eastwest;gradientColor=#ffd966;" vertex="1" parent="N1QTLzZFye_Z8eLdZ8pb-9">
          <mxGeometry y="52" width="170" height="26" as="geometry" />
        </mxCell>
        <mxCell id="N1QTLzZFye_Z8eLdZ8pb-12" value="+ BankAccount: string" style="text;strokeColor=#d6b656;fillColor=#fff2cc;align=left;verticalAlign=top;spacingLeft=4;spacingRight=4;overflow=hidden;rotatable=0;points=[[0,0.5],[1,0.5]];portConstraint=eastwest;gradientColor=#ffd966;" vertex="1" parent="N1QTLzZFye_Z8eLdZ8pb-9">
          <mxGeometry y="78" width="170" height="26" as="geometry" />
        </mxCell>
        <mxCell id="N1QTLzZFye_Z8eLdZ8pb-73" value="FinancialInstitutionBO" style="swimlane;fontStyle=0;childLayout=stackLayout;horizontal=1;startSize=26;fillColor=#e6d0de;horizontalStack=0;resizeParent=1;resizeParentMax=0;resizeLast=0;collapsible=1;marginBottom=0;gradientColor=#d5739d;strokeColor=#996185;" vertex="1" parent="WIyWlLk6GJQsqaUBKTNV-1">
          <mxGeometry x="231" y="626" width="170" height="104" as="geometry" />
        </mxCell>
        <mxCell id="N1QTLzZFye_Z8eLdZ8pb-74" value="+ Name: string" style="text;strokeColor=#d6b656;fillColor=#fff2cc;align=left;verticalAlign=top;spacingLeft=4;spacingRight=4;overflow=hidden;rotatable=0;points=[[0,0.5],[1,0.5]];portConstraint=eastwest;gradientColor=#ffd966;" vertex="1" parent="N1QTLzZFye_Z8eLdZ8pb-73">
          <mxGeometry y="26" width="170" height="26" as="geometry" />
        </mxCell>
        <mxCell id="N1QTLzZFye_Z8eLdZ8pb-75" value="+ ID: string" style="text;strokeColor=#d6b656;fillColor=#fff2cc;align=left;verticalAlign=top;spacingLeft=4;spacingRight=4;overflow=hidden;rotatable=0;points=[[0,0.5],[1,0.5]];portConstraint=eastwest;gradientColor=#ffd966;" vertex="1" parent="N1QTLzZFye_Z8eLdZ8pb-73">
          <mxGeometry y="52" width="170" height="26" as="geometry" />
        </mxCell>
        <mxCell id="N1QTLzZFye_Z8eLdZ8pb-76" value="+ Address: string" style="text;strokeColor=#d6b656;fillColor=#fff2cc;align=left;verticalAlign=top;spacingLeft=4;spacingRight=4;overflow=hidden;rotatable=0;points=[[0,0.5],[1,0.5]];portConstraint=eastwest;gradientColor=#ffd966;" vertex="1" parent="N1QTLzZFye_Z8eLdZ8pb-73">
          <mxGeometry y="78" width="170" height="26" as="geometry" />
        </mxCell>
        <mxCell id="N1QTLzZFye_Z8eLdZ8pb-77" value="PayScaleBO" style="swimlane;fontStyle=0;childLayout=stackLayout;horizontal=1;startSize=26;fillColor=#e6d0de;horizontalStack=0;resizeParent=1;resizeParentMax=0;resizeLast=0;collapsible=1;marginBottom=0;gradientColor=#d5739d;strokeColor=#996185;" vertex="1" parent="WIyWlLk6GJQsqaUBKTNV-1">
          <mxGeometry x="420" y="690" width="190" height="234" as="geometry" />
        </mxCell>
        <mxCell id="N1QTLzZFye_Z8eLdZ8pb-79" value="+ ID: string" style="text;strokeColor=#d6b656;fillColor=#fff2cc;align=left;verticalAlign=top;spacingLeft=4;spacingRight=4;overflow=hidden;rotatable=0;points=[[0,0.5],[1,0.5]];portConstraint=eastwest;gradientColor=#ffd966;" vertex="1" parent="N1QTLzZFye_Z8eLdZ8pb-77">
          <mxGeometry y="26" width="190" height="26" as="geometry" />
        </mxCell>
        <mxCell id="N1QTLzZFye_Z8eLdZ8pb-83" value="+ Category: string" style="text;strokeColor=#d6b656;fillColor=#fff2cc;align=left;verticalAlign=top;spacingLeft=4;spacingRight=4;overflow=hidden;rotatable=0;points=[[0,0.5],[1,0.5]];portConstraint=eastwest;gradientColor=#ffd966;" vertex="1" parent="N1QTLzZFye_Z8eLdZ8pb-77">
          <mxGeometry y="52" width="190" height="26" as="geometry" />
        </mxCell>
        <mxCell id="N1QTLzZFye_Z8eLdZ8pb-81" value="+ ScaleNumber: int" style="text;strokeColor=#d6b656;fillColor=#fff2cc;align=left;verticalAlign=top;spacingLeft=4;spacingRight=4;overflow=hidden;rotatable=0;points=[[0,0.5],[1,0.5]];portConstraint=eastwest;gradientColor=#ffd966;" vertex="1" parent="N1QTLzZFye_Z8eLdZ8pb-77">
          <mxGeometry y="78" width="190" height="26" as="geometry" />
        </mxCell>
        <mxCell id="N1QTLzZFye_Z8eLdZ8pb-82" value="+ MonthYear: date" style="text;strokeColor=#d6b656;fillColor=#fff2cc;align=left;verticalAlign=top;spacingLeft=4;spacingRight=4;overflow=hidden;rotatable=0;points=[[0,0.5],[1,0.5]];portConstraint=eastwest;gradientColor=#ffd966;" vertex="1" parent="N1QTLzZFye_Z8eLdZ8pb-77">
          <mxGeometry y="104" width="190" height="26" as="geometry" />
        </mxCell>
        <mxCell id="N1QTLzZFye_Z8eLdZ8pb-78" value="+ StartPay: int" style="text;strokeColor=#d6b656;fillColor=#fff2cc;align=left;verticalAlign=top;spacingLeft=4;spacingRight=4;overflow=hidden;rotatable=0;points=[[0,0.5],[1,0.5]];portConstraint=eastwest;gradientColor=#ffd966;" vertex="1" parent="N1QTLzZFye_Z8eLdZ8pb-77">
          <mxGeometry y="130" width="190" height="26" as="geometry" />
        </mxCell>
        <mxCell id="N1QTLzZFye_Z8eLdZ8pb-85" value="+ EndPay: int" style="text;strokeColor=#d6b656;fillColor=#fff2cc;align=left;verticalAlign=top;spacingLeft=4;spacingRight=4;overflow=hidden;rotatable=0;points=[[0,0.5],[1,0.5]];portConstraint=eastwest;gradientColor=#ffd966;" vertex="1" parent="N1QTLzZFye_Z8eLdZ8pb-77">
          <mxGeometry y="156" width="190" height="26" as="geometry" />
        </mxCell>
        <mxCell id="N1QTLzZFye_Z8eLdZ8pb-84" value="+ GradePay: int" style="text;strokeColor=#d6b656;fillColor=#fff2cc;align=left;verticalAlign=top;spacingLeft=4;spacingRight=4;overflow=hidden;rotatable=0;points=[[0,0.5],[1,0.5]];portConstraint=eastwest;gradientColor=#ffd966;" vertex="1" parent="N1QTLzZFye_Z8eLdZ8pb-77">
          <mxGeometry y="182" width="190" height="26" as="geometry" />
        </mxCell>
        <mxCell id="N1QTLzZFye_Z8eLdZ8pb-80" value="+ SpecialPay: int" style="text;strokeColor=#d6b656;fillColor=#fff2cc;align=left;verticalAlign=top;spacingLeft=4;spacingRight=4;overflow=hidden;rotatable=0;points=[[0,0.5],[1,0.5]];portConstraint=eastwest;gradientColor=#ffd966;" vertex="1" parent="N1QTLzZFye_Z8eLdZ8pb-77">
          <mxGeometry y="208" width="190" height="26" as="geometry" />
        </mxCell>
        <mxCell id="N1QTLzZFye_Z8eLdZ8pb-107" value="EmployeeItemBO" style="swimlane;fontStyle=0;childLayout=stackLayout;horizontal=1;startSize=26;fillColor=#e6d0de;horizontalStack=0;resizeParent=1;resizeParentMax=0;resizeLast=0;collapsible=1;marginBottom=0;gradientColor=#d5739d;strokeColor=#996185;" vertex="1" parent="WIyWlLk6GJQsqaUBKTNV-1">
          <mxGeometry x="230" y="760" width="170" height="156" as="geometry" />
        </mxCell>
        <mxCell id="N1QTLzZFye_Z8eLdZ8pb-108" value="+ ID: string" style="text;strokeColor=#d6b656;fillColor=#fff2cc;align=left;verticalAlign=top;spacingLeft=4;spacingRight=4;overflow=hidden;rotatable=0;points=[[0,0.5],[1,0.5]];portConstraint=eastwest;gradientColor=#ffd966;" vertex="1" parent="N1QTLzZFye_Z8eLdZ8pb-107">
          <mxGeometry y="26" width="170" height="26" as="geometry" />
        </mxCell>
        <mxCell id="N1QTLzZFye_Z8eLdZ8pb-109" value="+ Name: string" style="text;strokeColor=#d6b656;fillColor=#fff2cc;align=left;verticalAlign=top;spacingLeft=4;spacingRight=4;overflow=hidden;rotatable=0;points=[[0,0.5],[1,0.5]];portConstraint=eastwest;gradientColor=#ffd966;" vertex="1" parent="N1QTLzZFye_Z8eLdZ8pb-107">
          <mxGeometry y="52" width="170" height="26" as="geometry" />
        </mxCell>
        <mxCell id="N1QTLzZFye_Z8eLdZ8pb-110" value="+ Department: string" style="text;strokeColor=#d6b656;fillColor=#fff2cc;align=left;verticalAlign=top;spacingLeft=4;spacingRight=4;overflow=hidden;rotatable=0;points=[[0,0.5],[1,0.5]];portConstraint=eastwest;aspect=fixed;gradientColor=#ffd966;" vertex="1" parent="N1QTLzZFye_Z8eLdZ8pb-107">
          <mxGeometry y="78" width="170" height="26" as="geometry" />
        </mxCell>
        <mxCell id="N1QTLzZFye_Z8eLdZ8pb-111" value="+ Designation: string" style="text;strokeColor=#d6b656;fillColor=#fff2cc;align=left;verticalAlign=top;spacingLeft=4;spacingRight=4;overflow=hidden;rotatable=0;points=[[0,0.5],[1,0.5]];portConstraint=eastwest;gradientColor=#ffd966;" vertex="1" parent="N1QTLzZFye_Z8eLdZ8pb-107">
          <mxGeometry y="104" width="170" height="26" as="geometry" />
        </mxCell>
        <mxCell id="N1QTLzZFye_Z8eLdZ8pb-112" value="+ Category: string" style="text;strokeColor=#d6b656;fillColor=#fff2cc;align=left;verticalAlign=top;spacingLeft=4;spacingRight=4;overflow=hidden;rotatable=0;points=[[0,0.5],[1,0.5]];portConstraint=eastwest;gradientColor=#ffd966;" vertex="1" parent="N1QTLzZFye_Z8eLdZ8pb-107">
          <mxGeometry y="130" width="170" height="26" as="geometry" />
        </mxCell>
        <mxCell id="N1QTLzZFye_Z8eLdZ8pb-86" value="TransactionBO" style="swimlane;fontStyle=0;childLayout=stackLayout;horizontal=1;startSize=26;fillColor=#e6d0de;horizontalStack=0;resizeParent=1;resizeParentMax=0;resizeLast=0;collapsible=1;marginBottom=0;gradientColor=#d5739d;strokeColor=#996185;" vertex="1" parent="WIyWlLk6GJQsqaUBKTNV-1">
          <mxGeometry x="20" y="410" width="190" height="520" as="geometry" />
        </mxCell>
        <mxCell id="N1QTLzZFye_Z8eLdZ8pb-87" value="+ ID: string" style="text;strokeColor=#d6b656;fillColor=#fff2cc;align=left;verticalAlign=top;spacingLeft=4;spacingRight=4;overflow=hidden;rotatable=0;points=[[0,0.5],[1,0.5]];portConstraint=eastwest;gradientColor=#ffd966;" vertex="1" parent="N1QTLzZFye_Z8eLdZ8pb-86">
          <mxGeometry y="26" width="190" height="26" as="geometry" />
        </mxCell>
        <mxCell id="N1QTLzZFye_Z8eLdZ8pb-95" value="+ EmployeeID: string" style="text;strokeColor=#d6b656;fillColor=#fff2cc;align=left;verticalAlign=top;spacingLeft=4;spacingRight=4;overflow=hidden;rotatable=0;points=[[0,0.5],[1,0.5]];portConstraint=eastwest;gradientColor=#ffd966;" vertex="1" parent="N1QTLzZFye_Z8eLdZ8pb-86">
          <mxGeometry y="52" width="190" height="26" as="geometry" />
        </mxCell>
        <mxCell id="N1QTLzZFye_Z8eLdZ8pb-96" value="+ EmployeeName: string" style="text;strokeColor=#d6b656;fillColor=#fff2cc;align=left;verticalAlign=top;spacingLeft=4;spacingRight=4;overflow=hidden;rotatable=0;points=[[0,0.5],[1,0.5]];portConstraint=eastwest;gradientColor=#ffd966;" vertex="1" parent="N1QTLzZFye_Z8eLdZ8pb-86">
          <mxGeometry y="78" width="190" height="26" as="geometry" />
        </mxCell>
        <mxCell id="N1QTLzZFye_Z8eLdZ8pb-98" value="+ Designation: string" style="text;strokeColor=#d6b656;fillColor=#fff2cc;align=left;verticalAlign=top;spacingLeft=4;spacingRight=4;overflow=hidden;rotatable=0;points=[[0,0.5],[1,0.5]];portConstraint=eastwest;gradientColor=#ffd966;" vertex="1" parent="N1QTLzZFye_Z8eLdZ8pb-86">
          <mxGeometry y="104" width="190" height="26" as="geometry" />
        </mxCell>
        <mxCell id="N1QTLzZFye_Z8eLdZ8pb-97" value="+ Department: string" style="text;strokeColor=#d6b656;fillColor=#fff2cc;align=left;verticalAlign=top;spacingLeft=4;spacingRight=4;overflow=hidden;rotatable=0;points=[[0,0.5],[1,0.5]];portConstraint=eastwest;gradientColor=#ffd966;" vertex="1" parent="N1QTLzZFye_Z8eLdZ8pb-86">
          <mxGeometry y="130" width="190" height="26" as="geometry" />
        </mxCell>
        <mxCell id="N1QTLzZFye_Z8eLdZ8pb-88" value="+ Category: string" style="text;strokeColor=#d6b656;fillColor=#fff2cc;align=left;verticalAlign=top;spacingLeft=4;spacingRight=4;overflow=hidden;rotatable=0;points=[[0,0.5],[1,0.5]];portConstraint=eastwest;gradientColor=#ffd966;" vertex="1" parent="N1QTLzZFye_Z8eLdZ8pb-86">
          <mxGeometry y="156" width="190" height="26" as="geometry" />
        </mxCell>
        <mxCell id="N1QTLzZFye_Z8eLdZ8pb-103" value="+ SubCategory: string" style="text;strokeColor=#d6b656;fillColor=#fff2cc;align=left;verticalAlign=top;spacingLeft=4;spacingRight=4;overflow=hidden;rotatable=0;points=[[0,0.5],[1,0.5]];portConstraint=eastwest;gradientColor=#ffd966;" vertex="1" parent="N1QTLzZFye_Z8eLdZ8pb-86">
          <mxGeometry y="182" width="190" height="26" as="geometry" />
        </mxCell>
        <mxCell id="N1QTLzZFye_Z8eLdZ8pb-92" value="+ BasicPay: double" style="text;strokeColor=#d6b656;fillColor=#fff2cc;align=left;verticalAlign=top;spacingLeft=4;spacingRight=4;overflow=hidden;rotatable=0;points=[[0,0.5],[1,0.5]];portConstraint=eastwest;gradientColor=#ffd966;" vertex="1" parent="N1QTLzZFye_Z8eLdZ8pb-86">
          <mxGeometry y="208" width="190" height="26" as="geometry" />
        </mxCell>
        <mxCell id="N1QTLzZFye_Z8eLdZ8pb-93" value="+ GradePay: double" style="text;strokeColor=#d6b656;fillColor=#fff2cc;align=left;verticalAlign=top;spacingLeft=4;spacingRight=4;overflow=hidden;rotatable=0;points=[[0,0.5],[1,0.5]];portConstraint=eastwest;gradientColor=#ffd966;" vertex="1" parent="N1QTLzZFye_Z8eLdZ8pb-86">
          <mxGeometry y="234" width="190" height="26" as="geometry" />
        </mxCell>
        <mxCell id="N1QTLzZFye_Z8eLdZ8pb-94" value="+ SpecialPay: double" style="text;strokeColor=#d6b656;fillColor=#fff2cc;align=left;verticalAlign=top;spacingLeft=4;spacingRight=4;overflow=hidden;rotatable=0;points=[[0,0.5],[1,0.5]];portConstraint=eastwest;gradientColor=#ffd966;" vertex="1" parent="N1QTLzZFye_Z8eLdZ8pb-86">
          <mxGeometry y="260" width="190" height="26" as="geometry" />
        </mxCell>
        <mxCell id="N1QTLzZFye_Z8eLdZ8pb-99" value="+ WorkingDays: int" style="text;strokeColor=#d6b656;fillColor=#fff2cc;align=left;verticalAlign=top;spacingLeft=4;spacingRight=4;overflow=hidden;rotatable=0;points=[[0,0.5],[1,0.5]];portConstraint=eastwest;gradientColor=#ffd966;" vertex="1" parent="N1QTLzZFye_Z8eLdZ8pb-86">
          <mxGeometry y="286" width="190" height="26" as="geometry" />
        </mxCell>
        <mxCell id="N1QTLzZFye_Z8eLdZ8pb-102" value="+ AbsentDays: int" style="text;strokeColor=#d6b656;fillColor=#fff2cc;align=left;verticalAlign=top;spacingLeft=4;spacingRight=4;overflow=hidden;rotatable=0;points=[[0,0.5],[1,0.5]];portConstraint=eastwest;gradientColor=#ffd966;" vertex="1" parent="N1QTLzZFye_Z8eLdZ8pb-86">
          <mxGeometry y="312" width="190" height="26" as="geometry" />
        </mxCell>
        <mxCell id="N1QTLzZFye_Z8eLdZ8pb-101" value="+ TotalEarnings: double" style="text;strokeColor=#d6b656;fillColor=#fff2cc;align=left;verticalAlign=top;spacingLeft=4;spacingRight=4;overflow=hidden;rotatable=0;points=[[0,0.5],[1,0.5]];portConstraint=eastwest;gradientColor=#ffd966;" vertex="1" parent="N1QTLzZFye_Z8eLdZ8pb-86">
          <mxGeometry y="338" width="190" height="26" as="geometry" />
        </mxCell>
        <mxCell id="N1QTLzZFye_Z8eLdZ8pb-100" value="+ TotalDeductions: double" style="text;strokeColor=#d6b656;fillColor=#fff2cc;align=left;verticalAlign=top;spacingLeft=4;spacingRight=4;overflow=hidden;rotatable=0;points=[[0,0.5],[1,0.5]];portConstraint=eastwest;gradientColor=#ffd966;" vertex="1" parent="N1QTLzZFye_Z8eLdZ8pb-86">
          <mxGeometry y="364" width="190" height="26" as="geometry" />
        </mxCell>
        <mxCell id="N1QTLzZFye_Z8eLdZ8pb-91" value="+ NetPay: double" style="text;strokeColor=#d6b656;fillColor=#fff2cc;align=left;verticalAlign=top;spacingLeft=4;spacingRight=4;overflow=hidden;rotatable=0;points=[[0,0.5],[1,0.5]];portConstraint=eastwest;gradientColor=#ffd966;" vertex="1" parent="N1QTLzZFye_Z8eLdZ8pb-86">
          <mxGeometry y="390" width="190" height="26" as="geometry" />
        </mxCell>
        <mxCell id="N1QTLzZFye_Z8eLdZ8pb-90" value="+ MonthYear: date" style="text;strokeColor=#d6b656;fillColor=#fff2cc;align=left;verticalAlign=top;spacingLeft=4;spacingRight=4;overflow=hidden;rotatable=0;points=[[0,0.5],[1,0.5]];portConstraint=eastwest;gradientColor=#ffd966;" vertex="1" parent="N1QTLzZFye_Z8eLdZ8pb-86">
          <mxGeometry y="416" width="190" height="26" as="geometry" />
        </mxCell>
        <mxCell id="N1QTLzZFye_Z8eLdZ8pb-104" value="+ Remarks: string" style="text;strokeColor=#d6b656;fillColor=#fff2cc;align=left;verticalAlign=top;spacingLeft=4;spacingRight=4;overflow=hidden;rotatable=0;points=[[0,0.5],[1,0.5]];portConstraint=eastwest;gradientColor=#ffd966;" vertex="1" parent="N1QTLzZFye_Z8eLdZ8pb-86">
          <mxGeometry y="442" width="190" height="26" as="geometry" />
        </mxCell>
        <mxCell id="N1QTLzZFye_Z8eLdZ8pb-105" value="+ UpdateUserID: string" style="text;strokeColor=#d6b656;fillColor=#fff2cc;align=left;verticalAlign=top;spacingLeft=4;spacingRight=4;overflow=hidden;rotatable=0;points=[[0,0.5],[1,0.5]];portConstraint=eastwest;gradientColor=#ffd966;" vertex="1" parent="N1QTLzZFye_Z8eLdZ8pb-86">
          <mxGeometry y="468" width="190" height="26" as="geometry" />
        </mxCell>
        <mxCell id="N1QTLzZFye_Z8eLdZ8pb-106" value="+ UpdateTime: datetime" style="text;strokeColor=#d6b656;fillColor=#fff2cc;align=left;verticalAlign=top;spacingLeft=4;spacingRight=4;overflow=hidden;rotatable=0;points=[[0,0.5],[1,0.5]];portConstraint=eastwest;gradientColor=#ffd966;" vertex="1" parent="N1QTLzZFye_Z8eLdZ8pb-86">
          <mxGeometry y="494" width="190" height="26" as="geometry" />
        </mxCell>
        <mxCell id="N1QTLzZFye_Z8eLdZ8pb-0" value="BaseBusinessEntity" style="swimlane;fontStyle=0;childLayout=stackLayout;horizontal=1;startSize=26;fillColor=#e6d0de;horizontalStack=0;resizeParent=1;resizeParentMax=0;resizeLast=0;collapsible=1;marginBottom=0;gradientColor=#d5739d;strokeColor=#996185;" vertex="1" parent="WIyWlLk6GJQsqaUBKTNV-1">
          <mxGeometry x="20" y="270" width="190" height="112" as="geometry" />
        </mxCell>
        <mxCell id="N1QTLzZFye_Z8eLdZ8pb-1" value="+ UpdateUserID: string" style="text;strokeColor=#d6b656;fillColor=#fff2cc;align=left;verticalAlign=top;spacingLeft=4;spacingRight=4;overflow=hidden;rotatable=0;points=[[0,0.5],[1,0.5]];portConstraint=eastwest;gradientColor=#ffd966;" vertex="1" parent="N1QTLzZFye_Z8eLdZ8pb-0">
          <mxGeometry y="26" width="190" height="26" as="geometry" />
        </mxCell>
        <mxCell id="N1QTLzZFye_Z8eLdZ8pb-2" value="+ BusinessErrorMsg: string" style="text;strokeColor=#d6b656;fillColor=#fff2cc;align=left;verticalAlign=top;spacingLeft=4;spacingRight=4;overflow=hidden;rotatable=0;points=[[0,0.5],[1,0.5]];portConstraint=eastwest;gradientColor=#ffd966;" vertex="1" parent="N1QTLzZFye_Z8eLdZ8pb-0">
          <mxGeometry y="52" width="190" height="26" as="geometry" />
        </mxCell>
        <mxCell id="N1QTLzZFye_Z8eLdZ8pb-4" value="" style="line;strokeWidth=1;fillColor=#fff2cc;align=left;verticalAlign=middle;spacingTop=-1;spacingLeft=3;spacingRight=3;rotatable=0;labelPosition=right;points=[];portConstraint=eastwest;gradientColor=#ffd966;strokeColor=#d6b656;" vertex="1" parent="N1QTLzZFye_Z8eLdZ8pb-0">
          <mxGeometry y="78" width="190" height="8" as="geometry" />
        </mxCell>
        <mxCell id="N1QTLzZFye_Z8eLdZ8pb-3" value="+ toXML(Type): string" style="text;strokeColor=#d6b656;fillColor=#fff2cc;align=left;verticalAlign=top;spacingLeft=4;spacingRight=4;overflow=hidden;rotatable=0;points=[[0,0.5],[1,0.5]];portConstraint=eastwest;gradientColor=#ffd966;" vertex="1" parent="N1QTLzZFye_Z8eLdZ8pb-0">
          <mxGeometry y="86" width="190" height="26" as="geometry" />
        </mxCell>
        <mxCell id="N1QTLzZFye_Z8eLdZ8pb-134" value="&lt;font&gt;&lt;u style=&quot;font-size: 29px&quot;&gt;Business Objects&lt;/u&gt;&lt;br&gt;&lt;font style=&quot;font-size: 23px&quot; color=&quot;#808080&quot;&gt;Class Diagrams&lt;/font&gt;&lt;br&gt;&lt;/font&gt;" style="text;strokeColor=none;fillColor=none;html=1;fontSize=24;fontStyle=1;verticalAlign=middle;align=center;" vertex="1" parent="WIyWlLk6GJQsqaUBKTNV-1">
          <mxGeometry x="269" y="130" width="290" height="40" as="geometry" />
        </mxCell>
      </root>
    </mxGraphModel>
  </diagram>
</mxfile>
